<svg height="371.800073" viewBox="0 0 102.24306 140.53253" width="268.961755" xmlns="http://www.w3.org/2000/svg" xmlns:xlink="http://www.w3.org/1999/xlink"><clipPath id="a"><path clip-rule="evenodd" d="m207.28 126.38 9.94 15.19 17.41-2.79v29.95l-23.68 18.1 40.08 17.41 26.08-20.89 33.92 18.11 16.22-16.32v-63.77l-30.64-2.23-9.58 12.68-42.65-27.16z"/></clipPath><g clip-path="url(#a)" transform="matrix(0 1.25 1.25 0 -141.55938 -266.59495)"><path d="m259.193 185.296c.334 1.512.426 2.847.284 3.094-.198.343-6.275 5.985-16.043 6.601-13.12.827-23.188-8.652-23.142-11.085.032-1.719 6.238-5.724 18.584-5.904 1.367-.02 2.826.006 4.335.051 3.689-1.128 6.106-3.372 10.18-3.574-.967-.347-1.91-.719-2.807-1.111-6.313-2.746-10.015-8.219-8.994-9.861.024-.037.05-.073.078-.107-1.35-2.595-2.132-6.491-1.983-9.895-.054.063-.118.104-.196.096-.428-.043-.622-1.146-.373-2.491-.249.598-.399 1.719-.822 1.694-.675-.04-.913-3.685 1.644-6.477-1.022.797-2.516 1.246-2.691.722-.169-.506 2.511-1.013 5.372-4.909.937-3.102 5.096-6.629 9.829-8.593-4.3-.246-7.114-2.12-16.313-1.707-.793.22-1.62.435-2.49.641-8.324 1.977-18.956 2.788-20.254-.229-.47-1.091.538-3.81 2.333-6.253 1.94-2.638 4.548-4.822 5.539-4.608.539.117 1.293 1.214 2.79 2.109.93.557 2.558 1.196 2.756.997.2-.2-.174-5.182.798-6.627.971-1.444 8.861-5.176 15.537-4.553 10.409.971 21.517 10.259 25.257 18.833.804.128 1.708.389 2.684.867 4.311 2.109 7.843 5.567 10.318 9.594 1.747-1.078 3.743-3.817 6.431-4.433 1.211-.278 2.929-.249 4.285.149 1.277.376 2.473 1.479 3.096 1.465.63-.014 1.498-.317 2.486-.736.134-1.315 1.654-2.951 3.221-3.91-.64-.271-1.375-.839-1.722-1.305-.104.008-.205.01-.298.006-.695-.032-1.028-.814-1.146-1.675-.525-.343-.939-.835-.897-1.364.08-.988 1.157-1.572 2.13-1.64.593-.812 1.86-.914 2.587-.519.805-.471 2.152-.815 3.291-.642.353-.175.773-.282 1.243-.288.529-.008.976.113 1.335.322 1.125-.205 2.059.295 2.558 1.037.884-.016 1.815.242 2.647.644.551-.748 1.417-1.131 1.863-.708.378.359.02 1.173-.195 1.816.289.264.526.537.693.802.047-.175.114-.366.207-.575.548-1.221 1.974-1.819 2.628-1.358.896.629-.699 2.501-.946 3.351-.172.59-.187.894-.229 1.113 1.73.835-.165 3.597-.497 5.563-.196 1.155.015 2.472-.028 3.29.224-.083.46-.14.703-.169.08-.197.151-.404.172-.614.052-.518-.163-.766-.1-1.461.091-1.004 1.382-2.671 2.308-2.192.908.469-.611 3.696-.548 4.55.027.354.393.656.637 1.07.109-.487.253-1.124.493-1.618.798-1.645 3.075-2.352 3.537-1.694.602.857-1.696 2.129-1.827 5.364-.033.814.781.847.813 1.645.024.552-.192 1.001-.511 1.307.322.062.619.235.839.515.763-.747 1.759-1.589 2.32-1.071.644.594.067 2.262-1.31 3.633.273 1.483-.264 2.681-1.105 2.956.014.412-.009.884-.14 1.304.768.397 1.261 1.324.933 2.305.044.065.085.13.121.194.249.448.282 1.046.249 1.379 3.261 2.821 2.339 9.578-1.744 11.958.421.806-.121 2.039-1.787 2.193-.371.538-1.085.936-1.771.973-1.493 2.652-2.691 6.626-6.077 8.174-.468 4.456-5.598 6.502-8.467 5.482-1.756-.625-1.419-2.632-2.033-4.207-2.819.023-6.575-.401-9.068-1.31-4.98-1.817-7.535-4.561-8.735-7.042-.999-2.064-.733-4.223-1.812-6.199-.504-.926-1.603-.962-2.304-1.675-.674.576-1.411 1.108-2.22 1.588-1.608.955-4.184 1.806-4.8 2.154-1.044.59-2.704 3.283-4.367 3.825-.104.034-.212.064-.32.095-.595 5.367-4.386 8.718-5.073 8.76-.25.016-.819-.611-2.131-1.453-1.171-.751-2.539-1.264-2.615-1.137-.074.124.492 1.356.787 2.698"/><path d="m244.312 178.088c7.635.265 16.284.873 20.907-1.267-3.12.056-6.946-.723-10.548-1.902-4.348.219-7.475 2.343-10.359 3.169" fill="#5372a6"/><path d="m228.031 118.302c-.987 1.945-.605 6.146-.956 6.51-.224.232-1.71-.083-3.188-.896-1.303-.718-2.437-1.94-2.632-1.952-.624-.039-3.184 1.95-5.082 4.409-1.683 2.18-2.786 4.793-2.442 5.73.642 1.75 8.49 2.277 19.788-.25 7.919-1.77 12.688-4.984 19.39-5.217 3.599-.126 6.489.641 8.653 1.679-1.974-2.363-2.764-7.422-8.831-11.082-3.066-1.678-6.348-2.87-9.629-3.216-6.152-.647-14.461 3.081-15.071 4.285" fill="#9d74a0"/><path d="m310.271 129.617c.082.234.126.479.123.726-.507-1.231-1.594-1.679-2.282-1.675.233.355.356.784.356 1.243 0 1.039-1.189 1.861-2.492 1.793-1.251-.065-2.242-.797-2.307-1.854-.028-.454.14-.906.459-1.276-.992-.059-1.888.239-2.552.556-.695-.385-1.483-.281-1.94.075.312.064.578.197.744.407.376.474.003 2.805-1.03 3.022-.314.066-.784-.041-1.232-.259.174.568.39.985.966 1.04.698.067 1.529-.282 1.795-.681-.025.572-.655.911-1.279 1.046.372.394 1.164.861 1.847 1.073.677-.345 1.335-.542 1.864-.508-2.087.75-4.151 2.559-4.552 4.244 1.529-.692 3.229-1.502 4.752-1.906 1.572-.417 3.073-.613 4.534-.232 1.444.375 2.08 1.736 2.714 1.863.582.116.847-.398.831-.681-.041-.702-1.17-1.54-1.17-2.395 0-.722.835-1.489 1.767-1.949.116-.76-.124-1.523-.023-2.369.029-.248.101-.485.201-.705-.783-.362-1.558-.576-2.094-.598" fill="#5372a6"/><path d="m314.114 129.412c-.413-.325-1.368.471-1.594 1.562-.128.618.053 1.522-.035 2.179.534-.221 1.074-.334 1.488-.273.007.001.013.003.019.004-.032-.434-.189-.964-.177-1.496.017-.714.532-1.793.299-1.976" fill="#0d2953"/><path d="m314.91 132.266c-.183-.313-.433-.608-.728-.878 0 .002-.001.004-.001.006-.03.563.138 1.155.151 1.653.218.187.343.489.41.736.014-.002.027-.002.04-.003.049-.168.097-.356.125-.569.035-.263-.017-.559.003-.945" fill="#5372a6"/><path d="m315.709 139.659c.177-1.673 1.522-4.38.666-5.043-.481.273-1.594.36-1.754.003-.045-.101-.02-.238.03-.411-.751.164-1.841.813-1.911 1.694-.097 1.219 1.235 2.919-.025 3.587.822-1.083-.564-2.383-.551-3.603.01-1.02 1.035-1.783 2.103-2.029-.103-.286-.206-.527-.419-.558-.825-.124-2.809 1.057-2.827 2.005-.016.831.91 1.64.897 2.391-.013.686-.772 1.184-1.295 1.134-.862-.082-1.654-1.318-2.928-1.62-1.01-.239-2.524-.263-3.96.076-3.239.763-6.715 2.877-8.603 2.856-.936-.011-1.486-.713-3.089-1.196-1.046-.315-2.508-.481-4.118-.166-2.318.454-4.404 2.988-6.368 4.089.218.364.429.732.63 1.104.825.097 1.867-.123 2.496-.414.138-.205.285-.405.452-.593 1.098-1.25 2.616-2.025 3.155-1.379.415.498-1.478 1.611-2.01 2.74 2.484-2.196 5.578-2.275 5.83-1.361.132.481-.632.714-1.03.963 1.172-.618 2.824-.72 2.974-.121.115.466-.981.718-1.562.918 5.737-.992 7.103 2.588 12.187 4.042.101-.059.201-.117.301-.173 2.45-1.382 5.353-2.194 6.772-1.768 1.026.308 1.361 1.266 2.163 1.867.332.249 1.046.449 1.262.3.216-.15.354-1.099.15-1.612-.3-.747-1.263-.88-1.296-1.66-.038-.898.664-1.95 1.682-2.505.054-.91-.141-2.267-.004-3.557" fill="#5372a6"/><path d="m297.332 153.053c1.593-.359 4.179-2.35 6.696-3.896-4.031-1.182-7.081-5.822-14.011-3.452 1.088-1.047 3.305-1.42 3.28-1.769s-2.84.149-4.957 1.843c.822-1.47 3.22-2.309 3.089-2.666-.175-.473-3.065-.348-5.63 2.044 0-1.562 2.042-2.94 1.943-3.189-.146-.364-1.545.446-2.358 1.328-.932 1.009-1.21 2.149-2.125 2.89 1.22 2.831 1.947 5.811 2.098 8.72 1.253-.866 3.022-1.998 5.06-2.463 4.259-.971 6.072.8 6.915.61" fill="#6ac6e0"/><path d="m284.45 143.928c-.582.257-1.258.505-2.014.513.251.487.486.979.707 1.478.503-.46.849-1.229 1.307-1.991" fill="#5372a6"/><path d="m318.748 139.061c-.32-.175-1.268.803-1.462 1.777-.083.416.106.964.066 1.379-.066.697-.633 1.353-.514 1.561.114.199.902-.291 1.565-.326-.026-.084-.045-.169-.054-.255-.133-1.261.891-3.865.399-4.136" fill="#0d2953"/><path d="m322.667 141.303c-.133-.232-1.674.133-2.375 1.462-.315.598-.494 1.441-.581 1.743-.166.582-.479 1.218-.399 1.379.11.218 1.134-.074 1.782.173.096-2.999 1.791-4.376 1.573-4.757" fill="#0d2953"/><path d="m320.857 156.928c.722.291 1.554.849 2.128 1.457.075-.83-.861-2.159-2.128-1.457" fill="#0d2953"/><path d="m320.724 171.678c.375.013.677.119.903.285 3.606-2.249 4.689-8.328 1.571-11.428.018-.217.15-.698-.116-1.263-.448-.951-2.313-2.175-3.139-2.175-.44 0-1.016.388-1.227.772.917.266 1.726.704 1.958 1.321-1.312-1.129-3.72-1.163-4.699-.997-.224-.958-1.536-1.453-2.522-.974.23.258.37.6.362 1.023-.029 1.681-3.207 2.701-4.059 1.623-.418.597-.463 1.709 1.237 1.882-.588.211-1.038.211-1.356.073-.286.355-.654 1.087-.843 1.752.679-.091 1.081.419 1.617.766-.582.066-.83-.249-1.428-.15-.558.093-1.071.82-1.112 1.698.34-.296.698-.498.945-.486 1.051.05 2.107 3.471 1.362 4.252-.18.19-.768.248-1.328.209.695 1.006 2.247 1.207 2.723.173.072.413-.082.779-.37 1.012.731.479 1.962 1.104 2.987 1.405.28-.484.905-.747 1.601-.441-.533.045-1.087.382-1.112 1.03-.029.745.673 1.411 1.599 1.506-.256-.299-.412-.622-.403-.908.021-.691 1.608-1.345 2.471-1.41.864-.065 2.069.533 2.112 1.526.004.087-.005.174-.021.259 1.415-.314 1.412-1.86.287-2.335" fill="#5372a6"/><path d="m265.87 173.312c.867-.361 2.361-1.841 2.231-2.228-.068-.202-.278-.276-.481-.349-.741.762-1.782 1.451-2.586 1.578.282.417.564.751.836.999" fill="#f2f3b7"/><path d="m268.079 169.134c-.057-.363-.768-.543-1.165-.685-.933.722-2.08 1.283-3.116 1.464.342.849.71 1.573 1.08 2.16 1.407-.207 3.293-2.36 3.201-2.939" fill="#f2f3b7"/><path d="m268.211 165.435c-.214-.984-2.603-.841-4.858-2.101-.336.22-.692.397-1.045.508.274 2.257.776 4.207 1.371 5.771 2.206-.396 4.857-2.684 4.532-4.178" fill="#f2f3b7"/><path d="m264.488 160.99c-.079-.935-1.636-1.416-2.397-1.695-.005.259-.007.519-.007.783 0 1.215.069 2.368.189 3.454.96-.43 2.299-1.564 2.215-2.542" fill="#f2f3b7"/><path d="m262.098 158.951c1.134.355 2.923.71 3.026 1.951.056.671-.627 1.594-1.516 2.254 2.327 1.116 4.814.719 5.136 2.142.207.913-.47 1.99-1.498 2.881.491.109 1.167.225 1.294.803.086.394-.215.961-.7 1.516.294.072.683.19.7.542.025.561-1.24 1.947-2.492 2.425.303.237.589.364.844.364 1.203 0 2.97-2.125 4.309-2.89.403-.23.846-.434 1.316-.633-.278-.171-.476-.518-.503-.856-1.209-.376-1.774-1.611-1.411-2.273.153-.278.749-.159 1.33-.007-.021-.143-.02-.277.004-.395-1.567-.614-3.325-2.659-3.293-5.194.003-.283.029-.564.072-.845-3.416-2.182-3.502-8.451-.139-10.803-.143-.328-.269-.665-.373-1.011-.576.08-1.259.165-2.029.442-.996.358-2.173 1.005-3.119 1.218-.052.256-.104.515-.153.777 1.442.57 2.714 2.079 2.593 3.15-.105.921-2.189 1.842-3.31 2.457-.043.643-.072 1.305-.088 1.985" fill="#782741"/><path d="m265.554 135.194c.307.538.488 1.109.567 1.722 1.399.218 2.703 1.192 2.615 2.025-.075.711-.769 1.051-1.325 1.108.945.805 1.664 1.867 1.523 2.528-.106.493-.73.775-1.238.883.276.216.541.457.787.713.684-1.203 1.871-1.882 3.183-2.071.016-.257.058-.528.124-.799-.69.202-1.208.631-1.598.428-.722-.375-.472-2.319.645-3.234-.189-.458-.128-1.091.17-1.503-1.835-1.011-3.534-1.603-4.763-1.802-.259-.042-.487-.036-.69.002" fill="#782741"/><path d="m270.497 153.278c-.577-.919-1.214-1.873-1.715-2.901-3.319 2.621-2.965 8.041.028 9.852.51-2.325 1.999-4.601 1.687-6.951" fill="#782741"/><path d="m271.998 157.379c.089-1.131-.383-2.216-1.034-3.334-.206 2.635-1.903 4.533-1.839 7.519.048 2.285 1.582 4.141 2.959 4.91.384-.43 1.202-.132 1.761-.037-.163-.43-.152-.842.113-1.136.493-.55 1.403-.12 2.186-.058-.748-.599-1.203-1.351-.94-1.869.437-.864 1.763-.723 2.865-1.099.492-.168 1.236-.553 1.98-.67.114-.259.218-.575.31-.94-.801-.397-1.629-1.319-1.601-1.844.021-.398.992-1.275 2.031-1.588.022-.641.018-1.302-.017-1.959-1.032-.246-1.899-.909-1.926-1.423-.032-.58.685-1.459 1.388-2.035-.145-.493-.32-.941-.527-1.333-.658-.01-1.45-.228-1.972-.375-.279-.078-2.148-.186-2.474-.963-.234-.559.159-1.782.815-2.809-.87.084-2.106.23-2.421-.17-.304-.386-.203-1.572.229-2.704-.67.094-1.481.323-1.861.025-.24-.187-.356-.595-.365-1.088-1.261.289-2.264 1.05-2.813 2.177 1.011 1.212 1.569 2.656 1.02 3.599-.242.415-.634.569-1.149.667 1.04 3.5 4.071 6.261 3.282 8.537" fill="#df4d72"/><path d="m276.074 141.108c-.015-.151-.054-.298-.117-.437-.39-.382-.789-.744-1.191-1.085-.531-.214-1.119-.239-1.56.04-1.121.71-1.425 3.099-.921 3.525.288.245 1.17.053 1.711.035.443-1.013 1.153-1.92 2.078-2.078" fill="#f2f3b7"/><path d="m271.313 138.567c-1.269.839-1.288 2.538-.947 2.803.209.162.538-.194 1.507-.364.218-.696.594-1.341 1.097-1.649.019-.011.039-.022.059-.032-.227-.7-1.222-1.085-1.716-.758" fill="#f2f3b7"/><path d="m269.349 147.875c.86-1.785-2.291-5.092-4.161-5.212-.625 2.125-1.434 4.623-2.069 7.62.847-.243 2.016-.915 2.902-1.269 1.719-.688 3.008-.474 3.328-1.139" fill="#f2f3b7"/><path d="m265.27 142.385c.67.049 1.387.353 2.057.808.485-.141.979-.396 1.058-.813.142-.737-1.228-2.362-2.385-2.928-.16.892-.42 1.865-.73 2.933" fill="#f2f3b7"/><path d="m266.046 139.174c.357.153.721.373 1.066.634.576-.057 1.059-.284 1.143-.932.082-.633-1.075-1.437-2.102-1.649.046.606.003 1.252-.107 1.947" fill="#f2f3b7"/><path d="m271.091 138.316c.699-.421 1.852.094 2.125.919.32-.125.675-.141 1.026-.077-1.023-.817-2.061-1.505-3.064-2.069-.223.346-.204.871-.087 1.227" fill="#bb506f"/><path d="m276.303 141.085c.023-.001.046-.001.069-.001-.026-.026-.052-.052-.077-.078.004.026.005.053.008.079" fill="#bb506f"/><path d="m276.611 141.335c-2.221-.092-2.959 4.059-2.645 4.469.297.389 1.768.148 2.421.087.411-.536.887-.969 1.367-1.143.38-.139.701-.16.982-.109.058-.161.089-.343.084-.546-.679-1.008-1.424-1.927-2.209-2.758" fill="#f2f3b7"/><path d="m278.993 144.71c.115.043.224.097.326.161-.091-.15-.184-.298-.279-.444-.008.098-.024.193-.047.283" fill="#bb506f"/><path d="m279.681 145.489c-.513-.461-1.105-.688-1.728-.467-1.185.42-2.496 3.202-2.21 3.882.263.627 1.773.709 2.211.832.695.196 1.897.605 2.43.219.476-.344.675-.878.679-1.472-.39-1.066-.858-2.062-1.382-2.994" fill="#f2f3b7"/><path d="m280.581 150.283c-.114.083-.256.136-.418.167.153.346.287.719.404 1.114.279-.191.536-.317.715-.329.236-.018.441.058.609.172-.162-.788-.365-1.547-.604-2.274-.09.461-.311.865-.706 1.15" fill="#bb506f"/><path d="m281.991 151.924c-.184-.222-.38-.346-.626-.308-.497.079-2.043 1.659-2.043 2.176 0 .611 1.575 1.232 2.375 1.162.286-.024.478-.161.605-.408-.053-.908-.159-1.782-.311-2.622" fill="#f2f3b7"/><path d="m281.68 155.37c-.173.007-.347-.002-.52-.024.031.603.035 1.208.016 1.8.399-.06.791-.017 1.129.186.025-.45.039-.915.039-1.398 0-.314-.008-.623-.02-.93-.17.201-.395.356-.644.366" fill="#bb506f"/><path d="m282.282 157.681c-1.059-.687-3.093.81-3.093 1.193 0 .398.997 1.428 1.694 1.611.428.111.792-.02 1.048-.219.166-.794.285-1.654.351-2.585" fill="#f2f3b7"/><path d="m280.75 160.817c-.018-.005-.036-.012-.055-.018-.072.276-.151.534-.236.772.369 0 .725.093 1.039.336.138-.423.26-.869.368-1.338-.3.201-.739.345-1.116.248" fill="#bb506f"/><path d="m281.409 162.177c-1.002-.742-2.584.272-3.233.483-1.176.383-2.194.256-2.507.897-.363.741 2.003 2.936 3.857 2.127.748-.958 1.397-2.109 1.883-3.507" fill="#f2f3b7"/><path d="m276.5 165.5c-.922.033-1.749-.303-2.16.05-.706.604.692 2.451 2.42 2.689.85-.574 1.674-1.268 2.417-2.129-.852.24-1.873-.083-2.677-.61" fill="#f2f3b7"/><path d="m276.401 168.473c-1.041-.169-2.03-.986-2.451-1.801-.547-.071-1.276-.231-1.52.057-.456.536.725 2.449 2.392 2.597.486-.226.976-.479 1.461-.778.039-.025.079-.05.118-.075" fill="#f2f3b7"/><path d="m270.902 167.41c-.306.499.423 1.759 1.544 1.877.276.029.589-.006.808-.214-.641-.413-1.093-1.067-1.262-1.638-.371-.072-.974-.214-1.09-.025" fill="#f2f3b7"/><path d="m274.482 169.481c-.384-.021-.739-.133-1.054-.304-.21.26-.609.428-1.072.356-.053-.009-.102-.022-.153-.033.057.239.237.537.566.699.547-.228 1.124-.456 1.713-.718" fill="#bb506f"/><path d="m262.826 151.776c-.268 1.483-.483 3.081-.612 4.805.986-.525 2.546-1.291 2.669-2.116.125-.835-1.003-2.185-2.057-2.689" fill="#f2f3b7"/><path d="m267.764 176.544c-.47.104-.97.179-1.497.224-.365.323-.796.605-1.288.849.215 1.921-.095 4.762-1.148 6.435 1.748-1.525 3.487-4.88 3.933-7.508" fill="#5372a6"/><path d="m263.08 184.59c.005-.003.01-.005.015-.008 1.49-1.502 1.729-5.408 1.609-6.834-5.884 2.655-19.247.55-25.837.805-14.584.565-18.278 4.679-18.302 5.348-.069 1.949 10.22 11.183 22.819 10.33 7.252-.492 12.968-3.912 15.611-6.103-.1-3.388-1.196-5.481-.847-5.83.348-.348 3.039.648 4.932 2.292" fill="#9d74a0"/><path d="m252.418 151.982c.049-.842.963-1.233 2.287-1.146 2.127 1.218 3.786 3.59 4.502 5.886-1.527-1.735-6.901-2.816-6.789-4.74"/><path d="m252.415 164.725c.155.587.972.688 2.156.38-.793.295-1.608.451-2.386.429-4.168-.123-7.174-3.213-7.24-7.839-.066-4.684 3.554-8.005 7.274-7.673.693.062 1.362.259 1.995.559-1.126-.028-2.247.329-2.31 1.351-.157 2.573 5.951 3.153 7.46 5.353.135.551.215 1.092.228 1.605.018.659-.119 1.311-.373 1.935-2.144 2.429-7.15 2.59-6.804 3.9" fill="#0d2953"/><path d="m252.941 164.686c-.231-.692 3.686-1.214 5.987-3.249-.569 1.041-1.456 1.975-2.489 2.688-1.241.648-3.311 1.124-3.498.561"/><path d="m261.585 172.185c-.087 2.418-2.252 2.95-4.377 2.912-2.185-.549-4.386-1.288-6.418-2.156-3.305-1.415-5.728-3.456-7.188-5.278-1.32-2.569.907-3.455 4.092-3.044 1.245.944 2.789 1.495 4.525 1.545.622.019 1.262-.076 1.896-.26 3.536.791 7.573 3.425 7.47 6.281" fill="#6ac6e0"/><path d="m268.627 135.366c-.866-.331-1.637-.546-2.259-.647-1.22-.199-1.783.514-1.918 1.146.191-.221.461-.466.838-.601 1.812 4.148-3.13 10.753-3.593 22.966-.5.106-1.225.202-1.734.216-.345-3.78-3.576-8.749-7.742-9.122-3.981-.355-7.811 3.327-7.739 8.338.039 2.781 1.069 5.08 2.755 6.583-2.326-.412-5.068-.349-4.744 1.751-.511-.98-.647-1.774-.386-2.182.398-.622 1.246-.772 2.142-.722-.668-.31-1.506-.345-2.099-.063-2.159-4.278-2.507-10.356-1.587-13.837-.465 1.06-.737 2.353-.843 3.751-.046.09-.096.144-.154.135-.149-.025-.523-2.641 1.121-5.481-1.37 1.096-2.018 4.535-2.292 4.509-.404-.036-.149-4.06 2.99-6.825-.872.199-2.068 1.32-3.338 1.494 1.581-.91 3.46-2.535 4.399-3.788-.013.12-.022.24-.023.359-.029 2.292 1.793 3.587 3.786 4.119-1.031-.434-3.445-1.86-3.388-4.152.031-1.206.89-2.661 2.318-4.113-.995 1.348-1.57 2.694-1.454 3.847.164 1.641 2.372 3.38 4.155 4.029 2.058 1.021 5.49 2.121 6.747 1.942 1.57-.225 5.605-4.21 6.651-7.972 1.104-3.968.276-8.304-4.289-8.208 1.629-.379 3.295-.584 4.937-.553-2.453-.565-5.291-.201-8.027.729-3.844-.099-8.042-2.138-16.45-1.537 6.324-1.868 10.403-3.926 15.543-4.074 5.905-.169 10.053 1.763 12.555 3.787-.687-.8-1.807-1.749-3.347-2.573-1.89-2.335-2.437-5.813-5.649-9.006 5.288 3.77 9.514 8.693 11.298 12.465-.765-.069-1.42-.025-1.937.044 1.594.398 3.222.465 5.048 1.362.492.24.972.504 1.444.783-1.622-.384-3.622.407-3.735 1.101" fill="#5372a6"/><path d="m261.236 141.046c-1.046 3.762-5.081 7.747-6.651 7.972-1.257.179-4.689-.921-6.747-1.942.021.007.043.016.063.023-1.727-1.096-3.222-2.491-3.322-4.251-.113-2.011 1.128-3.974 3.133-5.821 2.527-1.806 5.798-3.388 9.235-4.189 4.565-.096 5.393 4.24 4.289 8.208" fill="#6ac6e0"/><path d="m257.208 175.097c2.125.038 4.29-.494 4.377-2.912.103-2.856-3.934-5.49-7.47-6.281 3.058-.89 5.956-3.92 5.876-6.98-.001-.055-.006-.111-.008-.166.519-.008 1.224-.083 1.701-.187-.015.486-.023.979-.023 1.482 0 8.547 3.314 14.2 5.231 14.2 1.163 0 2.512-1.524 3.748-2.524.113.399.863.651 1.991.555-1.477.95-2.755 2.967-4.303 3.413-2.78.8-6.922.453-11.12-.6" fill="#5372a6"/><path d="m270.64 171.729c.257-.207.508-.393.753-.536 1.53-.901 3.319-1.262 5.198-2.392 2.873-1.726 6.211-5.307 6.211-12.92 0-12.016-8.869-18.479-14.175-20.515.113-.694 2.113-1.485 3.735-1.101 12.534 7.428 17.806 27.856 4.967 35.719-2.279 1.396-3.587 1.628-4.584 2.226-.038.023-.075.049-.114.074-1.128.096-1.878-.156-1.991-.555" fill="#6ac6e0"/><g fill="#0d2953"><path d="m308.779 165.882c-.395-.019-1.185.884-1.295 1.445-.113.569.161 1.498.598 1.806.336.236 1.544.448 1.793.187.567-.596-.392-3.404-1.096-3.438"/><path d="m316.323 173.688c-.016.53 1.196 1.311 1.926 1.328.731.017 1.744-.531 1.711-1.296-.033-.763-.997-1.178-1.661-1.129-.664.05-1.959.565-1.976 1.097"/><path d="m310.095 159.622c-.366-.482.183-1.745.963-2.143 1.04-.531 2.345-.287 2.326.831-.021 1.184-2.667 2.127-3.289 1.312"/><path d="m307.887 129.994c0-.931-.648-1.744-1.811-1.727-1.162.016-2.043.83-1.993 1.644s.93 1.345 1.893 1.395c1.002.052 1.911-.513 1.911-1.312"/><path d="m300.031 129.878c-.396-.502-2.597-.169-2.69.98-.05.614 1.245 1.544 1.876 1.411.795-.167 1.104-2.026.814-2.391"/><path d="m324.461 149.204c-.383-.353-1.757 1.047-2.18 1.458-.424.41-1.595 1.768-1.395 2.142.199.373 1.37.124 2.13-.611 1.151-1.113 1.837-2.627 1.445-2.989"/><path d="m316.314 134.295c.134-.214.088-.722.287-1.407s1.208-2.317.747-2.641-1.444.299-1.83 1.121c-.387.822-.275 1.47-.325 1.843-.072.545-.383 1.095-.298 1.283.112.25 1.295 0 1.419-.199"/></g><path d="m304.2 131.272c.614 1.977 3.404 1.844 4.65.581-.788 2.621-4.817 1.562-4.65-.581"/><path d="m290.116 176.677c.715 1.644-.099 1.976.649 3.703.743 1.719 3.375 2.453 5.081 2.209 1.091-.156 2.258-.98 3.305-.631 1.072.357 1.272 1.479 1.239 2.596-2.363-.201-5.022-.695-7.168-1.484-3.749-1.378-7.091-3.949-8.569-6.725-.554-1.042-.844-2.756-1.295-4.266 1.541 1.087 5.974 2.792 6.758 4.598" fill="#1b4a7d"/><path d="m304.008 188.751c-1.521-.556-1.193-2.424-1.876-3.763 1.769-.035 3.121-.253 3.471-.647-1.017.332-2.983.403-5.213.213.033-1.117-.167-2.239-1.239-2.596-1.047-.349-2.214.475-3.305.631-1.706.244-4.338-.49-5.081-2.209-.748-1.727.066-2.059-.649-3.703-.784-1.806-5.217-3.511-6.758-4.598-.203-.681-.439-1.32-.748-1.838-.194-.324-.465-.585-.76-.82-.023-.713.34-1.536-.415-2.132 2.851-3.231 4.072-7.457 3.942-11.883.959-.679 3.185-2.153 5.13-2.453 3.886-.597 5.306.847 6.452.673 1.709-.26 6.267-3.588 8.469-4.509 2.09-.873 4.563-1.828 6.029-1.52.852.18 1.559 1.083 2.258 1.495.565.332 1.346.481 1.694.216.323-.245.482-1.444.3-2.076-.23-.793-1.047-.951-1.047-1.544 0-1.006 1.038-2.115 1.981-2.346-.084.224-.125.424-.038.585.217.401 1.044-.19 1.935-.139.167.334.401.662.554 1.019-1.434.061-2.87 1.396-2.97 2.242-.1.848.88 1.179.947 2.691.497-1.162-.632-2.192-.549-2.624.121-.628 1.236-1.629 2.463-1.692-.051.23-.069.446-.005.612.185.479 1.318.069 2.117.409.054.761.459.838.541 1.435.069.515-.169 1.04-.569 1.378-.1.033-.199.077-.295.133-.515.299-2.342 1.993-2.442 3.521-.099 1.528 1.014 1.793 1.611 2.092-.394-.569-1.316-.614-1.245-2.025.056-1.133 1.566-2.668 2.291-3.057.435-.232.995-.185 1.284.186-.113.115-.215.219-.304.304-.605.588-1.671 1.999-1.382 2.541.279.524 1.511.438 2.438-.139.102.869-.073 1.829-.956 2.108.089.537-.063 1.086-.215 1.434-.466-.067-.974.049-1.442.424-.17-.043-.33-.069-.469-.065-.69.015-1.311.545-1.571 1.063-.69-.164-1.407-.236-1.966-.216-.546-1.09-2.266-1.573-3.386-.677-.6-.313-1.444-.304-2.194.079-.992.507-1.474 1.668-1.273 2.469-.246.335-.404.695-.468 1.034-2.015.482-5.165 2.747-6.273 6.402-.029.097-.053.193-.078.289-2.979 1.151-6.193-1.88-8.815.194 2.822-1.257 6.095 1.005 8.638.689-.561 4.059 2.306 7.533 3.345 8.902-.196-.766-3.776-5.182-2.391-9.715.974-3.192 3.117-5.617 5.541-6.398.003.258.069.49.196.673-.47.598-.752 1.589-.817 2.189-.591.342-1.013 1.373-.925 2.561-.284.324-.513.69-.583 1.008-.161.734.201 1.875.864 2.341.118.083.323.149.565.195.778 1.316 1.748 1.651 2.423 1.465.972.832 2.29 1.363 3.267 1.624-.007.051-.011.102-.011.154 0 1.055 1.073 1.973 2.616 1.86.365.294.822.523 1.293.609-1.479 2.413-3.399 7.618-8.559 8.857.822-.019 1.554-.147 2.213-.358-.596 3.819-5.445 5.524-7.586 4.743" fill="#5372a6"/><path d="m281.85 169.421c-.48-.384-1.021-.702-1.383-1.133.342-.321.663-.655.968-.999.755.596.392 1.419.415 2.132" fill="#1b4a7d"/><path d="m323.813 165.185c0-3.538-3.065-5.157-5.132-5.232-3.71-.134-6.135 2.32-6.178 4.833-.049 2.94 2.406 5.064 5.256 5.281 2.712.207 6.054-1.705 6.054-4.882" fill="#1b4a7d"/><path d="m321.189 165.683c-1.428-1.479-4.019-1.926-6.494-1.412 1.512-.996 4.883-1.029 6.494 1.412"/><path d="m245.443 151.135c-1.644 2.267-2.616 5.206-1.171 8.968-1.52-2.616-1.71-6.264 1.171-8.968"/><path d="m243.973 150.861c-1.221 1.594-1.719 3.288-1.544 5.68-.673-2.093-.175-4.31 1.544-5.68"/><path d="m252.966 146.95c.374.075 1.022.224 1.445.249-2.366.449-6.626-1.27-6.826-4.608-.16-2.68 1.682-4.988 3.962-5.93 2.291-.946 5.495-.064 6.252 2.442 1.064 3.526-1.221 6.75-4.833 7.847"/><path d="m254.112 167.028c.498.05 1.296.175 1.644.224-1.444-.897-8.22-1.245-8.793 1.146-.442 1.841 2.424 3.639 4.658 4.384 2.999 1 6.022.84 6.701-.921.798-2.067-2.078-3.853-4.21-4.833"/><path d="m251.471 170.881c.146-.656-.348-1.213-1.328-1.445-.826-.196-1.561.1-1.677.648-.139.654.502 1.226 1.295 1.428.913.232 1.578-.033 1.71-.631" fill="#a8e3fa"/><path d="m250.441 145.555c-.707.149-1.245-.465-1.444-1.163-.182-.635-.052-1.384.648-1.577.78-.216 1.328.282 1.528 1.113.199.83-.1 1.494-.732 1.627" fill="#a8e3fa"/><path d="m258.845 147.149c1.395-1.046 2.915-2.715 2.915-4.434.797 1.221-1.171 3.712-2.915 4.434"/><path d="m258.746 166.729c1.096.573 2.167 1.346 2.915 2.541.049-.921-1.471-2.366-2.915-2.541"/></g></svg>